<svg xmlns="http://www.w3.org/2000/svg" xmlns:xlink="http://www.w3.org/1999/xlink" version="1.1" id="Layer_1" x="0px" y="0px" viewBox="0 0 503.467 503.467" style="enable-background:new 0 0 503.467 503.467;" xml:space="preserve">
<g transform="translate(1 3)">
	<path style="fill:#585cff;" d="M472.6,376.733c-14.507,0-25.6,11.093-25.6,25.6s11.093,25.6,25.6,25.6V496.2h-93.867V189   l-68.267-17.067v-76.8l102.4-25.6v153.6l68.267,25.6v128l-0.853,1.707C477.72,376.733,475.16,376.733,472.6,376.733z M139.8,496.2   v-256h-34.133V137.8l34.133-17.067v-76.8l51.2-25.6l51.2,25.6v110.933v221.867c-18.773,0-34.133,15.36-34.133,34.133   S223.427,445,242.2,445v51.2H139.8z"/>
	<path style="fill:#E4F2DE;" d="M37.4,325.533V240.2h68.267H139.8v256H37.4V393.8c18.773,0,34.133-15.36,34.133-34.133   S56.173,325.533,37.4,325.533z M378.733,189v307.2H242.2V445c18.773,0,34.133-15.36,34.133-34.133s-15.36-34.133-34.133-34.133   V154.867l68.267,17.067L378.733,189z"/>
	<path style="fill:#a1a1c7;" d="M37.4,325.533c18.773,0,34.133,15.36,34.133,34.133S56.173,393.8,37.4,393.8   S3.267,378.44,3.267,359.667S18.627,325.533,37.4,325.533z M242.2,376.733c18.773,0,34.133,15.36,34.133,34.133   S260.973,445,242.2,445s-34.133-15.36-34.133-34.133S223.427,376.733,242.2,376.733z M480.28,378.44   c10.24,3.413,17.92,12.8,17.92,23.893c0,14.507-11.093,25.6-25.6,25.6c-14.507,0-25.6-11.093-25.6-25.6s11.093-25.6,25.6-25.6   C475.16,376.733,477.72,377.587,480.28,378.44z"/>
</g>
<path style="fill:#51565F;" d="M499.2,503.467H4.267C1.707,503.467,0,501.76,0,499.2c0-2.56,1.707-4.267,4.267-4.267h29.867v-93.867  C15.36,398.507,0,382.293,0,362.667c0-21.333,17.067-38.4,38.4-38.4s38.4,17.067,38.4,38.4c0,19.627-15.36,35.84-34.133,38.4v93.867  h196.267v-42.667c-18.773-2.56-34.133-18.773-34.133-38.4c0-21.333,17.067-38.4,38.4-38.4s38.4,17.067,38.4,38.4  c0,19.627-15.36,35.84-34.133,38.4v42.667h221.867V435.2c-14.507-1.707-25.6-14.507-25.6-29.867  c0-16.213,13.653-29.867,29.867-29.867c16.213,0,29.867,13.653,29.867,29.867c0,15.36-11.093,27.307-25.6,29.867v59.733H499.2  c2.56,0,4.267,1.707,4.267,4.267C503.467,501.76,501.76,503.467,499.2,503.467z M243.2,384c-16.213,0-29.867,13.653-29.867,29.867  c0,16.213,13.653,29.867,29.867,29.867s29.867-13.653,29.867-29.867C273.067,397.653,259.413,384,243.2,384z M473.6,384  c-11.947,0-21.333,9.387-21.333,21.333c0,11.947,9.387,21.333,21.333,21.333c11.947,0,21.333-9.387,21.333-21.333  C494.933,393.387,485.547,384,473.6,384z M38.4,332.8c-16.213,0-29.867,13.653-29.867,29.867s13.653,29.867,29.867,29.867  s29.867-13.653,29.867-29.867S54.613,332.8,38.4,332.8z M413.867,469.333c-2.56,0-4.267-1.707-4.267-4.267v-34.133  c0-2.56,1.707-4.267,4.267-4.267s4.267,1.707,4.267,4.267v34.133C418.133,467.627,416.427,469.333,413.867,469.333z   M379.733,469.333c-2.56,0-4.267-1.707-4.267-4.267V195.413l-128-32.427V345.6c0,2.56-1.707,4.267-4.267,4.267  s-4.267-1.707-4.267-4.267V157.867c0-1.707,0.853-2.56,1.707-3.413c0.853-0.853,2.56-0.853,3.413-0.853l136.533,34.133  c1.707,0.853,3.413,2.56,3.413,4.267v273.067C384,467.627,382.293,469.333,379.733,469.333z M345.6,469.333  c-2.56,0-4.267-1.707-4.267-4.267v-34.133c0-2.56,1.707-4.267,4.267-4.267s4.267,1.707,4.267,4.267v34.133  C349.867,467.627,348.16,469.333,345.6,469.333z M311.467,469.333c-2.56,0-4.267-1.707-4.267-4.267v-34.133  c0-2.56,1.707-4.267,4.267-4.267s4.267,1.707,4.267,4.267v34.133C315.733,467.627,314.027,469.333,311.467,469.333z   M174.933,469.333c-2.56,0-4.267-1.707-4.267-4.267v-34.133c0-2.56,1.707-4.267,4.267-4.267c2.56,0,4.267,1.707,4.267,4.267v34.133  C179.2,467.627,177.493,469.333,174.933,469.333z M140.8,469.333c-2.56,0-4.267-1.707-4.267-4.267v-217.6H42.667V294.4  c0,2.56-1.707,4.267-4.267,4.267s-4.267-1.707-4.267-4.267v-51.2c0-2.56,1.707-4.267,4.267-4.267h102.4  c2.56,0,4.267,1.707,4.267,4.267v221.867C145.067,467.627,143.36,469.333,140.8,469.333z M106.667,469.333  c-2.56,0-4.267-1.707-4.267-4.267v-34.133c0-2.56,1.707-4.267,4.267-4.267s4.267,1.707,4.267,4.267v34.133  C110.933,467.627,109.227,469.333,106.667,469.333z M72.533,469.333c-2.56,0-4.267-1.707-4.267-4.267v-34.133  c0-2.56,1.707-4.267,4.267-4.267c2.56,0,4.267,1.707,4.267,4.267v34.133C76.8,467.627,75.093,469.333,72.533,469.333z   M413.867,401.067c-2.56,0-4.267-1.707-4.267-4.267v-17.067c0-2.56,1.707-4.267,4.267-4.267s4.267,1.707,4.267,4.267V396.8  C418.133,399.36,416.427,401.067,413.867,401.067z M345.6,401.067c-2.56,0-4.267-1.707-4.267-4.267v-17.067  c0-2.56,1.707-4.267,4.267-4.267s4.267,1.707,4.267,4.267V396.8C349.867,399.36,348.16,401.067,345.6,401.067z M311.467,401.067  c-2.56,0-4.267-1.707-4.267-4.267v-17.067c0-2.56,1.707-4.267,4.267-4.267s4.267,1.707,4.267,4.267V396.8  C315.733,399.36,314.027,401.067,311.467,401.067z M174.933,401.067c-2.56,0-4.267-1.707-4.267-4.267v-17.067  c0-2.56,1.707-4.267,4.267-4.267c2.56,0,4.267,1.707,4.267,4.267V396.8C179.2,399.36,177.493,401.067,174.933,401.067z   M106.667,401.067c-2.56,0-4.267-1.707-4.267-4.267v-17.067c0-2.56,1.707-4.267,4.267-4.267s4.267,1.707,4.267,4.267V396.8  C110.933,399.36,109.227,401.067,106.667,401.067z M482.133,349.867c-2.56,0-4.267-1.707-4.267-4.267v-91.307l-65.707-24.747  c-1.707-0.853-2.56-2.56-2.56-4.267V76.8l-93.867,23.893v39.253c0,2.56-1.707,4.267-4.267,4.267s-4.267-1.707-4.267-4.267V97.28  c0-1.707,1.707-3.413,3.413-4.267L409.6,68.267v-12.8c0-2.56,1.707-4.267,4.267-4.267s4.267,1.707,4.267,4.267v168.107  l65.707,24.747c1.707,0.853,2.56,2.56,2.56,4.267v93.867C486.4,348.16,484.693,349.867,482.133,349.867z M448,349.867  c-2.56,0-4.267-1.707-4.267-4.267v-17.067c0-2.56,1.707-4.267,4.267-4.267s4.267,1.707,4.267,4.267V345.6  C452.267,348.16,450.56,349.867,448,349.867z M413.867,349.867c-2.56,0-4.267-1.707-4.267-4.267v-17.067  c0-2.56,1.707-4.267,4.267-4.267s4.267,1.707,4.267,4.267V345.6C418.133,348.16,416.427,349.867,413.867,349.867z M345.6,349.867  c-2.56,0-4.267-1.707-4.267-4.267v-17.067c0-2.56,1.707-4.267,4.267-4.267s4.267,1.707,4.267,4.267V345.6  C349.867,348.16,348.16,349.867,345.6,349.867z M311.467,349.867c-2.56,0-4.267-1.707-4.267-4.267v-17.067  c0-2.56,1.707-4.267,4.267-4.267s4.267,1.707,4.267,4.267V345.6C315.733,348.16,314.027,349.867,311.467,349.867z M277.333,349.867  c-2.56,0-4.267-1.707-4.267-4.267v-17.067c0-2.56,1.707-4.267,4.267-4.267s4.267,1.707,4.267,4.267V345.6  C281.6,348.16,279.893,349.867,277.333,349.867z M209.067,349.867c-2.56,0-4.267-1.707-4.267-4.267v-17.067  c0-2.56,1.707-4.267,4.267-4.267s4.267,1.707,4.267,4.267V345.6C213.333,348.16,211.627,349.867,209.067,349.867z M174.933,349.867  c-2.56,0-4.267-1.707-4.267-4.267v-17.067c0-2.56,1.707-4.267,4.267-4.267c2.56,0,4.267,1.707,4.267,4.267V345.6  C179.2,348.16,177.493,349.867,174.933,349.867z M106.667,349.867c-2.56,0-4.267-1.707-4.267-4.267v-17.067  c0-2.56,1.707-4.267,4.267-4.267s4.267,1.707,4.267,4.267V345.6C110.933,348.16,109.227,349.867,106.667,349.867z M448,298.667  c-2.56,0-4.267-1.707-4.267-4.267v-17.067c0-2.56,1.707-4.267,4.267-4.267s4.267,1.707,4.267,4.267V294.4  C452.267,296.96,450.56,298.667,448,298.667z M413.867,298.667c-2.56,0-4.267-1.707-4.267-4.267v-17.067  c0-2.56,1.707-4.267,4.267-4.267s4.267,1.707,4.267,4.267V294.4C418.133,296.96,416.427,298.667,413.867,298.667z M345.6,298.667  c-2.56,0-4.267-1.707-4.267-4.267v-17.067c0-2.56,1.707-4.267,4.267-4.267s4.267,1.707,4.267,4.267V294.4  C349.867,296.96,348.16,298.667,345.6,298.667z M311.467,298.667c-2.56,0-4.267-1.707-4.267-4.267v-17.067  c0-2.56,1.707-4.267,4.267-4.267s4.267,1.707,4.267,4.267V294.4C315.733,296.96,314.027,298.667,311.467,298.667z M277.333,298.667  c-2.56,0-4.267-1.707-4.267-4.267v-17.067c0-2.56,1.707-4.267,4.267-4.267s4.267,1.707,4.267,4.267V294.4  C281.6,296.96,279.893,298.667,277.333,298.667z M209.067,298.667c-2.56,0-4.267-1.707-4.267-4.267v-17.067  c0-2.56,1.707-4.267,4.267-4.267s4.267,1.707,4.267,4.267V294.4C213.333,296.96,211.627,298.667,209.067,298.667z M174.933,298.667  c-2.56,0-4.267-1.707-4.267-4.267v-17.067c0-2.56,1.707-4.267,4.267-4.267c2.56,0,4.267,1.707,4.267,4.267V294.4  C179.2,296.96,177.493,298.667,174.933,298.667z M106.667,298.667c-2.56,0-4.267-1.707-4.267-4.267v-17.067  c0-2.56,1.707-4.267,4.267-4.267s4.267,1.707,4.267,4.267V294.4C110.933,296.96,109.227,298.667,106.667,298.667z M72.533,298.667  c-2.56,0-4.267-1.707-4.267-4.267v-17.067c0-2.56,1.707-4.267,4.267-4.267c2.56,0,4.267,1.707,4.267,4.267V294.4  C76.8,296.96,75.093,298.667,72.533,298.667z M345.6,247.467c-2.56,0-4.267-1.707-4.267-4.267v-17.067  c0-2.56,1.707-4.267,4.267-4.267s4.267,1.707,4.267,4.267V243.2C349.867,245.76,348.16,247.467,345.6,247.467z M311.467,247.467  c-2.56,0-4.267-1.707-4.267-4.267v-17.067c0-2.56,1.707-4.267,4.267-4.267s4.267,1.707,4.267,4.267V243.2  C315.733,245.76,314.027,247.467,311.467,247.467z M277.333,247.467c-2.56,0-4.267-1.707-4.267-4.267v-17.067  c0-2.56,1.707-4.267,4.267-4.267s4.267,1.707,4.267,4.267V243.2C281.6,245.76,279.893,247.467,277.333,247.467z M209.067,247.467  c-2.56,0-4.267-1.707-4.267-4.267v-17.067c0-2.56,1.707-4.267,4.267-4.267s4.267,1.707,4.267,4.267V243.2  C213.333,245.76,211.627,247.467,209.067,247.467z M174.933,247.467c-2.56,0-4.267-1.707-4.267-4.267v-17.067  c0-2.56,1.707-4.267,4.267-4.267c2.56,0,4.267,1.707,4.267,4.267V243.2C179.2,245.76,177.493,247.467,174.933,247.467z   M106.667,213.333c-2.56,0-4.267-1.707-4.267-4.267V140.8c0-1.707,0.853-3.413,2.56-3.413l31.573-16.213v-74.24  c0-1.707,0.853-3.413,2.56-3.413l48.64-24.747V4.267C187.733,1.707,189.44,0,192,0s4.267,1.707,4.267,4.267v14.507l48.64,24.747  c1.707,0.853,2.56,2.56,2.56,3.413v76.8c0,2.56-1.707,4.267-4.267,4.267c-2.56,0-4.267-1.707-4.267-4.267v-74.24L192,25.6  l-46.933,23.893v74.24c0,1.707-0.853,3.413-2.56,3.413l-31.573,16.213v65.707C110.933,211.627,109.227,213.333,106.667,213.333z   M209.067,196.267c-2.56,0-4.267-1.707-4.267-4.267v-17.067c0-2.56,1.707-4.267,4.267-4.267s4.267,1.707,4.267,4.267V192  C213.333,194.56,211.627,196.267,209.067,196.267z M174.933,196.267c-2.56,0-4.267-1.707-4.267-4.267v-17.067  c0-2.56,1.707-4.267,4.267-4.267c2.56,0,4.267,1.707,4.267,4.267V192C179.2,194.56,177.493,196.267,174.933,196.267z M140.8,196.267  c-2.56,0-4.267-1.707-4.267-4.267v-17.067c0-2.56,1.707-4.267,4.267-4.267c2.56,0,4.267,1.707,4.267,4.267V192  C145.067,194.56,143.36,196.267,140.8,196.267z M379.733,145.067c-2.56,0-4.267-1.707-4.267-4.267v-17.067  c0-2.56,1.707-4.267,4.267-4.267c2.56,0,4.267,1.707,4.267,4.267V140.8C384,143.36,382.293,145.067,379.733,145.067z M345.6,145.067  c-2.56,0-4.267-1.707-4.267-4.267v-17.067c0-2.56,1.707-4.267,4.267-4.267s4.267,1.707,4.267,4.267V140.8  C349.867,143.36,348.16,145.067,345.6,145.067z M209.067,145.067c-2.56,0-4.267-1.707-4.267-4.267v-17.067  c0-2.56,1.707-4.267,4.267-4.267s4.267,1.707,4.267,4.267V140.8C213.333,143.36,211.627,145.067,209.067,145.067z M174.933,145.067  c-2.56,0-4.267-1.707-4.267-4.267v-17.067c0-2.56,1.707-4.267,4.267-4.267c2.56,0,4.267,1.707,4.267,4.267V140.8  C179.2,143.36,177.493,145.067,174.933,145.067z M209.067,93.867c-2.56,0-4.267-1.707-4.267-4.267V72.533  c0-2.56,1.707-4.267,4.267-4.267s4.267,1.707,4.267,4.267V89.6C213.333,92.16,211.627,93.867,209.067,93.867z M174.933,93.867  c-2.56,0-4.267-1.707-4.267-4.267V72.533c0-2.56,1.707-4.267,4.267-4.267c2.56,0,4.267,1.707,4.267,4.267V89.6  C179.2,92.16,177.493,93.867,174.933,93.867z"/>
<g>
</g>
<g>
</g>
<g>
</g>
<g>
</g>
<g>
</g>
<g>
</g>
<g>
</g>
<g>
</g>
<g>
</g>
<g>
</g>
<g>
</g>
<g>
</g>
<g>
</g>
<g>
</g>
<g>
</g>
</svg>